Coordinates
version=1
nRows=10
nColumns=63
inDegrees=yes

Units are S.I. units (second, meters, Newtons, ...)
If the header above contains a line with 'inDegrees', this indicates whether rotational values are in degrees (yes) or radians (no).

endheader
time	pelvis_tilt	pelvis_list	pelvis_rotation	pelvis_tx	pelvis_ty	pelvis_tz	hip_flexion_r	hip_adduction_r	hip_rotation_r	knee_angle_r	knee_angle_r_beta	ankle_angle_r	subtalar_angle_r	mtp_angle_r	hip_flexion_l	hip_adduction_l	hip_rotation_l	knee_angle_l	knee_angle_l_beta	ankle_angle_l	subtalar_angle_l	mtp_angle_l	L5_S1_Flex_Ext	L5_S1_Lat_Bending	L5_S1_axial_rotation	L4_L5_Flex_Ext	L4_L5_Lat_Bending	L4_L5_axial_rotation	L3_L4_Flex_Ext	L3_L4_Lat_Bending	L3_L4_axial_rotation	L2_L3_Flex_Ext	L2_L3_Lat_Bending	L2_L3_axial_rotation	L1_L2_Flex_Ext	L1_L2_Lat_Bending	L1_L2_axial_rotation	L1_T12_Flex_Ext	L1_T12_Lat_Bending	L1_T12_axial_rotation	Abs_r3	Abs_r2	Abs_r1	Abs_t1	Abs_t2	neck_flexion	neck_bending	neck_rotation	arm_flex_r	arm_add_r	arm_rot_r	elbow_flex_r	pro_sup_r	wrist_flex_r	wrist_dev_r	arm_flex_l	arm_add_l	arm_rot_l	elbow_flex_l	pro_sup_l	wrist_flex_l	wrist_dev_l
      1.12280702	      5.91582037	      0.78487435	     94.16783661	      0.13496897	      0.74277854	      0.88740887	      6.15977746	      2.71240598	     -7.53339219	      8.20523085	      0.14320829	     26.91238662	     15.43792314	      0.00000000	      7.90677630	     -2.35065883	     -2.45445628	     12.95604235	      0.22612560	     27.34770741	      2.02061824	      0.00000000	      0.31871302	      0.11778761	      1.24033238	      0.59188194	      0.15665752	      1.31785316	      0.52361362	      0.28638878	      1.31785316	      0.36425711	      0.28638878	      1.08529083	      0.29595691	      0.24019248	      1.00777006	      0.18211262	      0.18245300	      0.93024929	      2.27653521	      1.33243695	      6.89835661	      0.00000000	      0.00000000	     27.23348819	     -0.09774508	      3.48342525	      4.34830323	    -18.51749027	     37.15147257	    120.51558028	     82.12466975	     24.35918167	     -0.51713495	     11.35476411	    -15.55945892	     54.65551163	     39.06413366	     86.83597919	    -16.51533692	      3.63860642
      1.14035088	      6.06401646	      0.43303513	     94.06661258	      0.13536904	      0.74225454	      0.88723441	      6.45129449	      2.90154229	     -6.86510291	      8.03012708	      0.14015216	     26.63550398	     14.75779922	      0.00000000	      8.03567589	     -2.49303568	     -2.50894833	     12.49709719	      0.21811549	     27.14889453	      2.25687624	      0.00000000	      0.34037137	      0.11702284	      1.19460795	      0.63210368	      0.15564037	      1.26927095	      0.55919613	      0.28452933	      1.26927095	      0.38901044	      0.28452933	      1.04528196	      0.31606886	      0.23863297	      0.97061896	      0.19448820	      0.18126837	      0.89595596	      2.43123869	      1.32378573	      6.64405103	      0.00000000	      0.00000000	     27.40483977	      0.44116838	      3.83872392	      4.58607098	    -18.22159289	     37.11847693	    119.99868928	     84.97930563	     26.05709210	     -1.45290042	      9.56939593	    -15.30592444	     49.27046946	     39.92687859	     87.20920258	    -12.68601207	      5.08791740
      1.15789474	      6.17830351	      0.12496781	     93.80145366	      0.13603740	      0.74177351	      0.88736752	      6.76802563	      3.03762126	     -6.43660686	      7.98254521	      0.13932170	     26.53069203	     14.63965444	      0.00000000	      8.15952745	     -2.61594313	     -2.68726855	     12.11414705	      0.21143175	     27.08037615	      2.40657961	      0.00000000	      0.34693900	      0.11471326	      1.19720884	      0.64430041	      0.15256863	      1.27203439	      0.56998608	      0.27891381	      1.27203439	      0.39651658	      0.27891381	      1.04755773	      0.32216755	      0.23392327	      0.97273218	      0.19824094	      0.17769083	      0.89790663	      2.47815056	      1.29765929	      6.65851639	      0.00000000	      0.00000000	     27.41992347	      0.71963171	      3.89637838	      4.83307281	    -17.94841756	     37.08738373	    119.60506187	     85.03177892	     27.69748538	     -0.50712815	      8.24594115	    -14.98509077	     45.50264281	     40.51033655	     86.47949228	    -10.41777411	      6.04686562
      1.17543860	      6.39076092	     -0.23630315	     93.51936105	      0.13648411	      0.74142111	      0.88767409	      7.18202172	      3.24995480	     -6.21178980	      7.99164933	      0.13948059	     26.46105355	     14.76773651	      0.00000000	      8.30068512	     -2.81667009	     -2.79549457	     11.57888668	      0.20208970	     27.00596720	      2.52199043	      0.00000000	      0.35955648	      0.12547053	      1.22147205	      0.66773234	      0.16687581	      1.29781405	      0.59071534	      0.30506906	      1.29781405	      0.41093710	      0.30506906	      1.06878804	      0.33388415	      0.25585951	      0.99244604	      0.20545057	      0.19435386	      0.91610404	      2.56827597	      1.41934779	      6.79346108	      0.00000000	      0.00000000	     27.23799993	      0.75962210	      3.64866730	      5.22284600	    -18.07236317	     37.38960929	    119.23681626	     84.23447001	     28.40788902	     -0.04683517	      7.48346260	    -14.55818769	     43.61143447	     40.55942742	     85.16698253	    -10.00233758	      6.36038717
      1.19298246	      6.40363454	     -0.50666193	     93.02104600	      0.13750262	      0.74118268	      0.88827757	      7.61744568	      3.27786163	     -5.79653540	      8.18444377	      0.14284549	     26.55013761	     14.95449712	      0.00000000	      8.44844764	     -2.88432489	     -3.25520826	     11.31783549	      0.19753349	     27.15223169	      2.65387190	      0.00000000	      0.33831321	      0.12180013	      1.16355563	      0.62828146	      0.16199417	      1.23627786	      0.55581477	      0.29614483	      1.23627786	      0.38665816	      0.29614483	      1.01811118	      0.31415764	      0.24837482	      0.94538895	      0.19331217	      0.18866840	      0.87266672	      2.41653741	      1.37782742	      6.47134735	      0.00000000	      0.00000000	     26.75280303	      0.59206044	      4.21564605	      6.41445970	    -17.93477464	     38.60586922	    118.43447212	     81.24486415	     29.68462144	      1.23397262	      6.16962513	    -14.42233941	     40.28256362	     41.27884329	     84.01485099	     -8.88593657	      6.43970524
      1.21052632	      6.52857297	     -0.69990446	     92.97860247	      0.13815890	      0.74121725	      0.88932565	      7.92870618	      3.40672258	     -5.75739066	      8.20502541	      0.14320471	     26.47586108	     14.97287086	      0.00000000	      8.65444441	     -3.04297146	     -3.20003954	     11.14023517	      0.19443378	     27.27681893	      2.77449094	      0.00000000	      0.29812624	      0.12300746	      1.15909111	      0.55365023	      0.16359993	      1.23153430	      0.48979159	      0.29908035	      1.23153430	      0.34072848	      0.29908035	      1.01420472	      0.27684002	      0.25083682	      0.94176152	      0.17034933	      0.19053856	      0.86931833	      2.12948589	      1.39148504	      6.44651701	      0.00000000	      0.00000000	     25.88394636	      0.48586329	      4.39353470	      6.75380617	    -17.89919747	     38.93823844	    118.15215197	     80.73417383	     29.67801074	      1.59315494	      6.10823888	    -14.39503468	     39.78860306	     41.43505968	     84.06665254	     -8.89560768	      6.36530761
      1.22807018	      6.89510815	     -1.07501098	     92.81674807	      0.13787868	      0.74096119	      0.88927594	      8.40835861	      3.73774241	     -5.38720443	      8.22430807	      0.14354125	     26.46976254	     14.74068096	      0.00000000	      8.98643918	     -3.46735513	     -4.27088804	     10.98987148	      0.19180944	     27.69753416	      3.88103617	      0.00000000	      0.31474191	      0.19030566	      0.83706227	      0.58450720	      0.25310653	      0.88937867	      0.51708949	      0.46270918	      0.88937867	      0.35971853	      0.46270918	      0.73242949	      0.29226934	      0.38807130	      0.68011310	      0.17984353	      0.29478346	      0.62779671	      2.24816999	      2.15277567	      4.65548925	      0.00000000	      0.00000000	     23.79105410	      0.32042018	      7.74920942	      8.51062781	    -18.12146576	     42.09538327	    117.56600820	     72.24202980	     28.68451942	      6.49628696	      3.70096715	    -13.69712558	     34.09159237	     42.30448380	     86.11555522	     -8.69140173	      6.18396662
      1.24561404	      7.13017789	     -1.33799164	     92.52596614	      0.13829255	      0.74113905	      0.88943235	      8.83517549	      3.96470389	     -5.11479822	      8.33225201	      0.14542523	     26.50612109	     14.77708430	      0.00000000	      9.18151344	     -3.74185951	     -4.57013854	     10.83227702	      0.18905890	     27.85106716	      3.78639237	      0.00000000	      0.31166070	      0.21442683	      0.78553247	      0.57878509	      0.28518768	      0.83462825	      0.51202737	      0.52135739	      0.83462825	      0.35619702	      0.52135739	      0.68734091	      0.28940813	      0.43725918	      0.63824513	      0.17808293	      0.33214715	      0.58914935	      2.22616123	      2.42563915	      4.36889595	      0.00000000	      0.00000000	     21.19679325	     -0.27431768	      7.80296361	      8.70415954	    -18.07572190	     42.76313263	    117.24880010	     71.88093073	     28.60158619	      6.72573576	      3.18206624	    -13.64660991	     33.29907432	     42.58370886	     86.16164372	     -9.41988738	      5.67064805
      1.26315789	      7.46984703	     -1.73833400	     92.37992090	      0.13822255	      0.74107193	      0.88956880	      9.30604023	      4.31154285	     -4.44532327	      8.18683543	      0.14288723	     26.28754554	     14.04175728	      0.00000000	      9.55883959	     -4.11350377	     -5.06354876	     10.71153181	      0.18695150	     27.98828895	      4.13499937	      0.00000000	      0.32248122	      0.26294402	      0.60880111	      0.59887987	      0.34971554	      0.64685118	      0.52980440	      0.63932208	      0.64685118	      0.36856379	      0.63932208	      0.53270097	      0.29945606	      0.53619544	      0.49465090	      0.18426577	      0.40730028	      0.45660083	      2.30345110	      2.97447532	      3.38596912	      0.00000000	      0.00000000	     18.83314959	     -0.23566131	      9.46280052	      9.22699403	    -18.02302445	     44.09358767	    116.81676422	     69.79571940	     28.13818751	      7.71163630	      1.95385691	    -13.25950384	     31.03822988	     43.10799119	     86.85253650	    -11.23338613	      4.67717305
      1.28070175	      7.73415065	     -2.05804860	     92.19818489	      0.13843207	      0.74107551	      0.88972743	      9.74146638	      4.56764028	     -4.14431020	      8.14560496	      0.14216763	     26.20798394	     13.85807493	      0.00000000	      9.85224255	     -4.39833311	     -5.20205156	     10.62734815	      0.18548222	     27.99205642	      3.94281213	      0.00000000	      0.32269716	      0.28961690	      0.56309922	      0.59928090	      0.38519047	      0.59829292	      0.53015917	      0.70417453	      0.59829292	      0.36881059	      0.70417453	      0.49271181	      0.29965659	      0.59058678	      0.45751811	      0.18438916	      0.44861658	      0.42232441	      2.30499357	      3.27620428	      3.13178892	      0.00000000	      0.00000000	     16.46612114	     -0.09511409	      9.48366062	      8.88353069	    -17.86862191	     44.11336725	    116.68943423	     70.27698647	     28.20625317	      8.07958344	      1.50284657	    -13.15346748	     30.31323583	     43.43027499	     87.02460084	    -12.15245558	      4.14140268
